<?xml version="1.0" encoding="utf-8"?>
<!-- Generator: Adobe Illustrator 24.0.2, SVG Export Plug-In . SVG Version: 6.00 Build 0)  -->
<svg version="1.1" id="Capa_1" xmlns="http://www.w3.org/2000/svg" xmlns:xlink="http://www.w3.org/1999/xlink" x="0px" y="0px"
	 viewBox="0 0 800 800" style="enable-background:new 0 0 800 800;" xml:space="preserve">
<style type="text/css">
	.st0{fill:#F5F5F5;}
</style>
<g>
	<g>
		<g>
			<path class="st0" d="M786.6,364.2L665.3,242.9V102.9c0-25.3-20.5-45.8-45.9-45.8c-25.3,0-45.8,20.5-45.8,45.8v48.4l-90.3-90.3
				C438.7,16.3,361.1,16.4,316.6,61L13.4,364.2c-17.9,17.9-17.9,46.9,0,64.8c17.9,17.9,47,17.9,64.9,0l303.1-303.2
				c9.9-9.8,27.3-9.8,37.1,0L721.7,429c9,9,20.7,13.4,32.4,13.4c11.7,0,23.5-4.5,32.4-13.4C804.5,411.1,804.5,382.1,786.6,364.2z"/>
			<path class="st0" d="M415.9,212.9c-8.8-8.8-23.1-8.8-31.8,0L117.4,479.5c-4.2,4.2-6.6,10-6.6,16v194.4c0,45.6,37,82.6,82.6,82.6
				h132V568h149.1v204.5h132c45.6,0,82.6-37,82.6-82.6V495.4c0-6-2.4-11.7-6.6-16L415.9,212.9z"/>
		</g>
	</g>
</g>
</svg>
